<?xml version="1.0" standalone="no"?><!DOCTYPE svg PUBLIC "-//W3C//DTD SVG 1.1//EN" "http://www.w3.org/Graphics/SVG/1.1/DTD/svg11.dtd"><svg t="1702519911109" class="icon" viewBox="0 0 1024 1024" version="1.1" xmlns="http://www.w3.org/2000/svg" p-id="3580" xmlns:xlink="http://www.w3.org/1999/xlink" width="200" height="200"><path d="M882.176 190.610286l-174.08 174.153143a34.304 34.304 0 0 1-48.493714-48.493715l174.153143-174.08H694.198857a34.304 34.304 0 0 1 0-68.608h222.281143c18.944 0 34.304 15.36 34.304 34.304v222.281143a34.304 34.304 0 0 1-68.608 0V190.610286z m-56.758857 646.875428l-174.811429-174.811428a36.571429 36.571429 0 1 1 51.785143-51.638857l174.738286 174.738285V636.854857a36.571429 36.571429 0 0 1 73.142857 0v237.202286a36.571429 36.571429 0 0 1-36.571429 36.571428H676.498286a36.571429 36.571429 0 0 1 0-73.142857h148.918857zM197.997714 146.285714l176.566857 176.566857a36.571429 36.571429 0 1 1-51.712 51.712L146.285714 197.997714v148.918857a36.571429 36.571429 0 0 1-73.142857 0V109.714286a36.571429 36.571429 0 0 1 36.571429-36.571429h237.202285a36.571429 36.571429 0 0 1 0 73.142857H197.997714zM146.285714 772.388571l176.566857-176.566857a36.571429 36.571429 0 1 1 51.712 51.785143l-176.566857 176.566857h148.918857a36.571429 36.571429 0 1 1 0 73.142857H109.714286a36.571429 36.571429 0 0 1-36.571429-36.571428V623.542857a36.571429 36.571429 0 1 1 73.142857 0v148.918857z" fill="#4A4A4A" p-id="3581"></path></svg>